<?xml version="1.0" encoding="UTF-8"?>
<svg width="17px" height="18px" viewBox="0 0 17 18" version="1.1" xmlns="http://www.w3.org/2000/svg" xmlns:xlink="http://www.w3.org/1999/xlink">
    <title>1C5B85C8-F83F-4D2A-97AB-D0D52E617811</title>
    <defs>
        <filter id="filter-1">
            <feColorMatrix in="SourceGraphic" type="matrix" values="0 0 0 0 0.458824 0 0 0 0 0.458824 0 0 0 0 0.458824 0 0 0 1.000000 0"></feColorMatrix>
        </filter>
    </defs>
    <g id="Web" stroke="none" stroke-width="1" fill="none" fill-rule="evenodd">
        <g id="NewSearch_01" transform="translate(-563.000000, -87.000000)">
            <g id="search" transform="translate(542.000000, 16.000000)">
                <g id="history" transform="translate(21.000000, 69.000000)">
                    <g id="icon" transform="translate(0.000000, 0.000000)" filter="url(#filter-1)">
                        <g transform="translate(8.131728, 11.000000) rotate(-45.000000) translate(-8.131728, -11.000000) translate(1.631728, 6.000000)">
                            <path d="M7.18657107,0.202787837 C7.04969895,0.331513322 6.97271033,0.506739914 6.97271033,0.689536248 C6.97271033,0.872332582 7.04969895,1.04755917 7.18657107,1.17628466 L10.5123484,4.32986591 L0.722995077,4.32986591 C0.323695922,4.32986591 0,4.63680209 0,5.01542705 C0,5.39405202 0.323695922,5.7009882 0.722995077,5.7009882 L10.4978885,5.7009882 L7.18657107,8.83400262 C6.90624882,9.10139714 6.90624882,9.5332493 7.18657107,9.80064383 C7.46856623,10.0664521 7.92399897,10.0664521 8.20599413,9.80064383 L12.8042428,5.44047496 C12.9293007,5.32670243 13,5.1694789 13,5.00514364 C13,4.84080838 12.9293007,4.68358485 12.8042428,4.56981231 L8.21322408,0.202787837 C8.07746975,0.07300244 7.8926752,0 7.69989757,0 C7.50711995,0 7.32232539,0.07300244 7.18657107,0.202787837 Z" id="Path" fill="#000000" fill-rule="nonzero"></path>
                        </g>
                    </g>
                </g>
            </g>
        </g>
    </g>
</svg>