<svg width="20" height="20" xmlns="http://www.w3.org/2000/svg">
    <defs>
        <filter id="a">
            <feColorMatrix in="SourceGraphic" values="0 0 0 0 0.572549 0 0 0 0 0.450980 0 0 0 0 0.831373 0 0 0 1.000000 0"/>
        </filter>
    </defs>
    <g transform="translate(-14 -29)">
        <g fill="#9273d4" fill-rule="nonzero">
            <path d="M32.352 32.333c0 1.496-1.256 2.709-2.807 2.709-1.55 0-2.806-1.213-2.806-2.709 0-1.495 1.256-2.708 2.806-2.708s2.807 1.213 2.807 2.708z"/>
            <path d="M29.545 35.667c-1.905 0-3.454-1.495-3.454-3.334 0-1.838 1.55-3.333 3.454-3.333C31.451 29 33 30.495 33 32.333c0 1.839-1.55 3.334-3.455 3.334zm0-5.417c-1.19 0-2.159.935-2.159 2.083 0 1.149.969 2.084 2.16 2.084 1.19 0 2.159-.935 2.159-2.084 0-1.148-.969-2.083-2.16-2.083zM32.352 45.667c0 1.495-1.256 2.708-2.807 2.708-1.55 0-2.806-1.213-2.806-2.708 0-1.496 1.256-2.709 2.806-2.709s2.807 1.213 2.807 2.709z"/>
            <path d="M29.545 49c-1.905 0-3.454-1.495-3.454-3.333 0-1.839 1.55-3.334 3.454-3.334 1.906 0 3.455 1.495 3.455 3.334C33 47.505 31.45 49 29.545 49zm0-5.417c-1.19 0-2.159.935-2.159 2.084 0 1.148.969 2.083 2.16 2.083 1.19 0 2.159-.935 2.159-2.083 0-1.149-.969-2.084-2.16-2.084zM20.261 39c0 1.496-1.256 2.708-2.806 2.708S14.648 40.496 14.648 39c0-1.496 1.256-2.708 2.807-2.708 1.55 0 2.806 1.212 2.806 2.708z"/>
            <path d="M17.455 42.333C15.549 42.333 14 40.838 14 39s1.55-3.333 3.455-3.333 3.454 1.495 3.454 3.333-1.55 3.333-3.454 3.333zm0-5.416c-1.191 0-2.16.935-2.16 2.083 0 1.148.969 2.083 2.16 2.083 1.19 0 2.159-.935 2.159-2.083 0-1.148-.968-2.083-2.16-2.083z"/>
            <path d="M19.494 38.6c-.3 0-.593-.15-.752-.42a.82.82 0 0 1 .323-1.138l8.014-4.408a.88.88 0 0 1 1.178.312.82.82 0 0 1-.323 1.137L19.92 38.49a.882.882 0 0 1-.426.11zM27.506 45.475a.882.882 0 0 1-.426-.11l-8.014-4.407a.819.819 0 0 1-.323-1.137.88.88 0 0 1 1.178-.312l8.014 4.408a.819.819 0 0 1 .323 1.137.87.87 0 0 1-.752.421z"/>
        </g>
    </g>
</svg>
