<svg xmlns="http://www.w3.org/2000/svg" width="26" height="34"><g fill-rule="evenodd" opacity=".7"><path fill-rule="nonzero" d="m25.006 15.21-1.646-2.253a.427.427 0 0 1-.007-.49l1.612-2.272a.422.422 0 0 0-.145-.613l-2.458-1.316a.41.41 0 0 1-.214-.44l.461-2.749a.419.419 0 0 0-.399-.489l-2.783-.117a.418.418 0 0 1-.385-.303l-.772-2.686a.42.42 0 0 0-.572-.269l-2.562 1.102a.433.433 0 0 1-.482-.103L12.794.139a.424.424 0 0 0-.633.007l-1.832 2.1a.413.413 0 0 1-.476.11l-2.576-1.06a.42.42 0 0 0-.565.275l-.737 2.687a.428.428 0 0 1-.378.31l-2.783.158a.425.425 0 0 0-.393.496l.503 2.741a.416.416 0 0 1-.206.441L.279 9.754a.424.424 0 0 0-.138.613l1.647 2.252c.103.145.11.345.007.49L.183 15.38a.422.422 0 0 0 .144.613l2.46 1.316a.412.412 0 0 1 .213.44L2.538 20.5a.42.42 0 0 0 .4.489l2.783.117a.42.42 0 0 1 .385.303l.779 2.68a.42.42 0 0 0 .571.268l2.563-1.102a.437.437 0 0 1 .482.103l1.86 2.074c.172.186.46.186.633-.007l1.832-2.101a.412.412 0 0 1 .476-.11l2.576 1.06a.42.42 0 0 0 .564-.275l.737-2.686a.43.43 0 0 1 .38-.31l2.782-.159a.423.423 0 0 0 .392-.496l-.502-2.74a.417.417 0 0 1 .206-.442l2.439-1.35c.22-.11.282-.4.13-.606zm-12.425 5.144c-4.167 0-7.563-3.395-7.563-7.562 0-4.168 3.396-7.563 7.563-7.563s7.563 3.395 7.563 7.563c0 4.174-3.396 7.562-7.563 7.562z"/><path d="M19.393 25.245c-.4.406-.958.647-1.557.647-.213 0-.427-.034-.627-.09l-1.777-.537-1.37 1.254c-.049.041-.09.083-.138.117l2.204 6.833c.076.24.386.296.544.096l1.605-2.06a.31.31 0 0 1 .33-.11l2.5.73a.313.313 0 0 0 .387-.392l-2.101-6.488zm-9.657.02-1.777.538a2.193 2.193 0 0 1-2.183-.558L3.675 31.74a.31.31 0 0 0 .386.392l2.5-.73a.305.305 0 0 1 .33.11l1.605 2.06c.152.2.469.145.545-.096l2.204-6.833a1.12 1.12 0 0 1-.138-.117l-1.37-1.26zm7.329-14.354-2.852-.206L13.14 8.06a.6.6 0 0 0-1.11 0l-1.074 2.645-2.851.206a.6.6 0 0 0-.345 1.054l2.184 1.846-.682 2.776a.598.598 0 0 0 .895.654l2.425-1.508 2.424 1.508a.598.598 0 0 0 .896-.654l-.682-2.776 2.183-1.846a.596.596 0 0 0-.337-1.054z"/></g></svg>