<?xml version="1.0" encoding="UTF-8"?>
<svg width="20px" height="20px" viewBox="0 0 20 20" version="1.1" xmlns="http://www.w3.org/2000/svg" xmlns:xlink="http://www.w3.org/1999/xlink">
    <title>side_call</title>
    <g id="Responsive-web" stroke="none" stroke-width="1" fill="none" fill-rule="evenodd" stroke-linecap="round" stroke-linejoin="round">
        <g id="SideMenu_00" transform="translate(-275.000000, -686.000000)" stroke="#202020">
            <g id="section" transform="translate(-2.000000, 583.000000)">
                <g id="row" transform="translate(18.000000, 103.000000)">
                    <g id="icon-profile" transform="translate(259.000000, 0.000000)">
                        <g id="Orion_24h-support" transform="translate(1.406592, 0.685132)">
                            <path d="M10.6665171,16.59236 C10.6665171,16.59236 14.2220228,16.59236 14.2220228,12.44427 L15.5257082,12.44427 C16.1148037,12.44427 16.59236,11.9667137 16.59236,11.3776183 L16.59236,8.17766312 C16.59236,7.58856765 16.1148037,7.11101141 15.5257082,7.11101141 L14.2220228,7.11101141 L14.2220228,5.92584284 C14.2220228,2.65329613 11.8650188,3.55271368e-15 8.59247212,3.55271368e-15 L7.99988783,3.55271368e-15 C4.72674854,3.55271368e-15 2.37033714,2.65329613 2.37033714,5.92584284 L2.37033714,7.11101141 L1.06665171,7.11101141 C0.477556238,7.11101141 0,7.58856765 0,8.17766312 L0,11.3776183 C0,11.9667137 0.477556238,12.44427 1.06665171,12.44427 L1.77775285,12.44427" id="Path"></path>
                            <path d="M10.6665171,16.59236 C10.6665171,15.9378094 10.1358991,15.4071914 9.48134854,15.4071914 L8.29617998,15.4071914 C7.64162945,15.4071914 7.11101141,15.9378094 7.11101141,16.59236 C7.11101141,17.2469105 7.64162945,17.7775285 8.29617998,17.7775285 L9.48134854,17.7775285 C10.1358991,17.7775285 10.6665171,17.2469105 10.6665171,16.59236 Z" id="Path"></path>
                            <path d="M10.6665171,6.51842712 L8.88876426,10.6665171 L13.0368542,10.6665171 M11.8516857,8.88876426 L11.8516857,12.44427 M4.14808999,6.97767994 C4.84059567,6.36064997 5.89110208,6.37971396 6.56076416,7.02146376 C7.23042624,7.66321356 7.29417096,8.71195745 6.70716522,9.43009 L4.14808999,12.44427 L7.70359569,12.44427" id="Shape"></path>
                        </g>
                    </g>
                </g>
            </g>
        </g>
    </g>
</svg>