<?xml version="1.0" encoding="UTF-8"?>
<svg width="20px" height="20px" viewBox="0 0 20 20" version="1.1" xmlns="http://www.w3.org/2000/svg" xmlns:xlink="http://www.w3.org/1999/xlink">
    <title>2691CF8D-ECA4-40FA-B6DB-C73F434B926C</title>
    <g id="Responsive-web" stroke="none" stroke-width="1" fill="none" fill-rule="evenodd">
        <g id="SideMenu_00" transform="translate(-275.000000, -777.000000)" fill="#202020">
            <g id="section" transform="translate(-1.291014, 583.753496)">
                <g id="row" transform="translate(17.291014, 193.246504)">
                    <g id="icon-career" transform="translate(259.000000, 0.000000)">
                        <path d="M17.0624203,9.06649069 L12.0565438,9.06649069 L12.0565438,8.90669772 C12.0565438,8.40352115 11.6424842,7.99118274 11.1369377,7.99118274 L9.86306233,7.99118274 C9.35632158,7.99118274 8.94343594,8.40223152 8.94343594,8.90669772 L8.94343594,9.06649069 L3.93743801,9.06649069 L3.93743801,6.73315064 C3.93743801,6.21816591 4.35746854,5.80002418 4.87499747,5.80002418 L16.1250025,5.80002418 C16.64241,5.80002418 17.0624203,6.21816591 17.0624203,6.73341259 L17.0624203,9.06649069 Z M9.8811978,11.0752475 L11.1188022,11.0752475 L11.1188022,8.92475251 L9.8811978,8.92475251 L9.8811978,11.0752475 Z M17.0624203,15.1331023 C17.0624203,15.6484699 16.64241,16.0666116 16.1248608,16.0666116 L4.87499747,16.0666116 C4.35746854,16.0666116 3.93743801,15.6484699 3.93743801,15.1333441 L3.93743801,10.0000202 L8.94343594,10.0000202 L8.94343594,11.0933224 C8.94343594,11.5963177 9.35715144,12.0088173 9.86306233,12.0088173 L11.1369377,12.0088173 C11.6411484,12.0088173 12.0565438,11.5953101 12.0565438,11.0933224 L12.0565438,10.0000202 L17.0624203,10.0000202 L17.0624203,15.1331023 Z M8.62493169,4.21090024 C8.62493169,3.95349855 8.83486599,3.93338841 9.09372154,3.93338841 L11.9062785,3.93338841 C12.1649721,3.93338841 12.3748861,3.95349855 12.3748861,4.21118234 L12.3748861,4.86649472 L8.62493169,4.86649472 L8.62493169,4.21090024 Z M16.1250025,4.86649472 L13.3124456,4.86649472 L13.3124456,3.93338841 C13.3124456,3.41816188 12.8924353,3 12.3748861,3 L8.62493169,3 C8.1075242,3 7.68739247,3.41816188 7.68739247,3.93338841 L7.68751392,4.86649472 L4.87499747,4.86649472 C3.83949431,4.86649472 3,5.70253636 3,6.73341259 L3,15.1331023 C3,16.1639584 3.83949431,17 4.87499747,17 L16.1250025,16.9997179 C17.1605057,16.9997179 18,16.1641196 18,15.1333441 L18,6.73315064 C18,5.70241546 17.1603235,4.86663577 16.1250025,4.86649472 L16.1250025,4.86649472 Z" id="Fill-52"></path>
                    </g>
                </g>
            </g>
        </g>
    </g>
</svg>