<svg width="171" height="61" xmlns="http://www.w3.org/2000/svg"><g fill="#1A1919" fill-rule="evenodd"><path d="M83.454 25.012c-.931.162-2.05.234-3.236.234-2.213 0-3.145-1.05-3.145-3.308V15.44H75v6.638c0 3.448 1.608 5.146 5.124 5.146 1.676 0 3.983-.184 5.427-.558V15.44h-2.097v9.572Zm-4.006-13.276h2.12V9.2h-2.12zm14.512 5.847v4.542c-.396.115-.768.208-1.234.208-1.118 0-2.073-.676-2.073-2.42 0-1.77 1.095-2.493 2.19-2.493.466 0 .745.07 1.117.163m-5.38 2.352c0 3.005 1.771 4.426 4.1 4.426.465 0 .884-.047 1.257-.14-.163 1.676-1.118 2.585-3.097 2.585-.234 0-1.235-.071-1.514-.071l.978 2.05h.651c3.47 0 5.101-1.745 5.101-5.1v-7.71c-1.303-.37-2.073-.536-3.26-.536-2.213 0-4.216 1.421-4.216 4.496m79.177-.303c0 1.794-.674 2.701-2.515 2.701h-4.411V9.222h-2.097V24.36h6.718c3.005 0 4.402-1.492 4.402-4.355V15.44h-2.097v4.193Zm-.023-7.872h2.12V9.222h-2.12zm-13.939 10.573h-24.828a5.11 5.11 0 0 1-2.399-.582 5.824 5.824 0 0 0 .258-1.745V15.44h-2.12v4.193c0 1.794-.513 2.7-1.98 2.7-.723 0-1.537-.115-2.376-.557.186-.468.256-1.097.256-1.77V15.44h-2.096v4.193c0 1.794-.49 2.7-1.957 2.7-.837 0-1.91-.115-2.77-.302V15.44h-2.097v9.806h-3.237c-2.213 0-3.144-1.05-3.144-3.308V15.44h-2.073v6.638c0 3.448 1.607 5.146 5.124 5.146h5.427v-3.165c1.024.184 2.119.302 2.887.302 1.025 0 1.933-.302 2.61-.863 1.233.652 2.375.863 3.563.863 1.14 0 2.048-.28 2.7-.863a7.453 7.453 0 0 0 3.518.863h26.831V15.44h-2.097v6.893Zm-.535 7.012h2.12v-2.539h-2.12zm-3.819 0h2.12v-2.539h-2.12zM103.057 39.2c1.217 0 2.397.416 3.32 1.17l1.36-1.666a7.419 7.419 0 0 0-4.68-1.652c-4.01 0-7.273 3.167-7.273 7.057 0 3.891 3.262 7.057 7.273 7.057a7.436 7.436 0 0 0 4.538-1.541l-1.316-1.698a5.208 5.208 0 0 1-3.222 1.091c-2.825 0-5.125-2.202-5.125-4.909 0-2.706 2.3-4.909 5.125-4.909M90.378 51.069h2.148v-13.92h-2.148zm-5.406-3.344-7.576-10.576H75v13.92h2.148V40.494l7.576 10.574h2.396V37.15h-2.148zm71.082-.001-7.575-10.575h-2.396v13.92h2.148V40.495l7.574 10.573h2.397V37.15h-2.148zm-44.665 3.442h8.522v-2.148h-6.374v-4.14h5.234V42.73h-5.234V39.2h6.374v-2.148h-8.522zM169.982 39.2v-2.148h-8.523v14.114h8.523v-2.148h-6.374v-4.14h5.234V42.73h-5.234V39.2zm-34.214 9.818a4.915 4.915 0 0 1-4.909-4.909 4.915 4.915 0 0 1 4.909-4.909 4.915 4.915 0 0 1 4.909 4.91 4.915 4.915 0 0 1-4.91 4.908m0-11.966c-3.89 0-7.056 3.166-7.056 7.057a7.065 7.065 0 0 0 7.057 7.057 7.065 7.065 0 0 0 7.057-7.057c0-3.89-3.166-7.057-7.057-7.057M30.487 58.413c-15.566 0-28.23-12.663-28.23-28.23 0-15.566 12.664-28.23 28.23-28.23 15.565 0 28.23 12.664 28.23 28.23 0 15.567-12.665 28.23-28.23 28.23m0-58.413C13.843 0 .304 13.54.304 30.183s13.54 30.183 30.183 30.183S60.67 46.826 60.67 30.183C60.67 13.541 47.13 0 30.487 0"/><path d="m36.51 40.867-1.957-1.956h4.662v-4.662l2.824 2.823v4.662h-3.436c-.79 0-1.534-.308-2.093-.867Zm-2.072-6.733v-4.662l2.823 2.823v4.662H32.6l-2.823-2.823h4.662ZM28.49 32.18h3.994v-3.994H28.49v3.994Zm-4.777-8.771h4.661l2.824 2.823h-4.662v4.662l-2.823-2.823v-4.662Zm-4.777-4.777h3.435c.79 0 1.535.308 2.094.867l1.956 1.956H21.76v4.662l-2.823-2.823v-4.662Zm21.057 0h2.046V34.31L25.846 18.118a4.883 4.883 0 0 0-3.475-1.44h-5.39v25.056h-2.044v1.954h6.043v-1.954h-2.044V26.056l16.193 16.192a4.88 4.88 0 0 0 3.474 1.44h5.39V18.632h2.043v-1.954h-6.043v1.954Z"/></g></svg>