<?xml version="1.0" encoding="UTF-8"?>
<svg width="20px" height="20px" viewBox="0 0 20 20" version="1.1" xmlns="http://www.w3.org/2000/svg" xmlns:xlink="http://www.w3.org/1999/xlink">
    <title>side_return</title>
    <g id="Responsive-web" stroke="none" stroke-width="1" fill="none" fill-rule="evenodd">
        <g id="SideMenu_00" transform="translate(-275.000000, -732.000000)" fill="#202020" fill-rule="nonzero">
            <g id="section" transform="translate(-2.000000, 583.000000)">
                <g id="row" transform="translate(18.000000, 149.000000)">
                    <g id="icon-profile" transform="translate(259.000000, 0.000000)">
                        <g id="return" transform="translate(2.000000, 4.000000)">
                            <path d="M11.0705797,2.96275362 L2.22666667,2.96275362 L4.03608696,1.15333333 C4.2907971,0.898623188 4.2907971,0.485724638 4.03608696,0.231014493 C3.78130435,-0.0237681159 3.36847826,-0.0236956522 3.11369565,0.231014493 L0.191014493,3.15384058 C-0.0636956522,3.40855072 -0.0636956522,3.82144928 0.191014493,4.07615942 L3.11369565,6.99884058 C3.24108696,7.12623188 3.40797101,7.18985507 3.57485507,7.18985507 C3.74173913,7.18985507 3.90862319,7.12615942 4.03601449,6.99884058 C4.29072464,6.74413043 4.29072464,6.33123188 4.03601449,6.07652174 L2.2265942,4.26710145 L11.0705072,4.26710145 C12.4823188,4.26710145 13.630942,5.41572464 13.630942,6.82753623 C13.630942,8.23934783 12.4823188,9.38797101 11.0705072,9.38797101 L5.69065217,9.38797101 C5.33043478,9.38797101 5.03847826,9.67992754 5.03847826,10.0401449 C5.03847826,10.4003623 5.33043478,10.6923188 5.69065217,10.6923188 L11.0705072,10.6923188 C13.2015217,10.6923188 14.9352899,8.95855072 14.9352899,6.82753623 C14.9352899,4.69652174 13.2015942,2.96275362 11.0705797,2.96275362 Z" id="Path"></path>
                        </g>
                    </g>
                </g>
            </g>
        </g>
    </g>
</svg>