<svg width="20" height="20" xmlns="http://www.w3.org/2000/svg"><defs><filter id="a"><feColorMatrix in="SourceGraphic" values="0 0 0 0 0.125490 0 0 0 0 0.125490 0 0 0 0 0.125490 0 0 0 1.000000 0"/></filter></defs><g filter="url(#a)" fill="none" fill-rule="evenodd"><g fill="#202020" fill-rule="nonzero"><path d="M17 4.288C16.999 3.576 16.422 3 15.71 3h-5.397c-.342 0-.67.136-.911.377l-7.025 7.025a1.29 1.29 0 0 0 0 1.823l5.396 5.397c.252.252.582.378.912.378.207 0 .413-.056.601-.156.689-.567-.33.419 7.335-7.246A1.29 1.29 0 0 0 17 9.686V4.288Zm-1 5.44a.607.607 0 0 1-.179.433L9.16 16.82a.607.607 0 0 1-.864 0l-5.117-5.118a.607.607 0 0 1 0-.864l6.66-6.66A.607.607 0 0 1 10.273 4h5.117c.337 0 .611.274.611.611V9.73Z"/><path d="M12 6c-1.103 0-2 .897-2 2s.897 2 2 2 2-.897 2-2-.898-2-2-2Zm0 3a1.001 1.001 0 0 1 0-2 1.001 1.001 0 0 1 0 2Z"/></g></g></svg>